<svg width="400" height="400" viewBox="0 0 400 400" fill="none" xmlns="http://www.w3.org/2000/svg">
<rect width="400" height="400" fill="white"/>
<g clip-path="url(#clip0_265_319)">
<path d="M70.6625 190.549L57.8878 165H67.3731L70.6625 176.903L73.0236 165.244H78.4217L80.8236 176.903L83.9582 165H93.3051L80.8236 190.549L75.5965 169.91H75.7675L70.6543 190.549H70.6625Z" fill="url(#paint0_radial_265_319)"/>
<path d="M92.9549 219.323L92.8247 219.437L83.5592 200.271L109.548 211.816L105.99 214.804L102.383 217.825L92.328 210.725L97.9785 221.204L93.8424 224.672L84.5443 217.255L89.6819 228.491L82.4112 234.589L75.7755 206.801L92.9549 219.323Z" fill="url(#paint1_radial_265_319)"/>
<path d="M58.6368 219.355L58.5065 219.241L75.7755 206.792L68.9119 234.393L65.3539 231.405L61.747 228.385L66.9985 217.247L57.6598 224.631L53.5237 221.163L59.2149 210.717L49.0456 217.727L41.7749 211.629L67.9837 200.271L58.6287 219.364L58.6368 219.355Z" fill="url(#paint2_radial_265_319)"/>
<path d="M80.8317 190.549L101.895 171.229L104.484 180.356L93.9239 186.763L105.787 185.852L107.26 191.046L96.6921 196.534L109.003 196.306L110.281 200.833L111.543 205.303L83.5592 200.255L101.992 189.605L102.041 189.776L80.8317 190.549Z" fill="url(#paint3_radial_265_319)"/>
<path d="M49.5016 189.776L49.5505 189.605L67.9837 200.254L40 205.311L41.262 200.841L42.5403 196.314L54.8508 196.542L44.2826 191.054L45.7563 185.86L57.6191 186.771L47.059 180.364L49.6482 171.237L70.6624 190.557L49.5016 189.784V189.776Z" fill="url(#paint4_radial_265_319)"/>
<path d="M98.9855 230.309V225.987H100.772C100.814 225.987 100.868 225.989 100.934 225.993C101 225.995 101.061 226.001 101.117 226.011C101.367 226.049 101.573 226.132 101.735 226.26C101.899 226.388 102.02 226.55 102.098 226.746C102.178 226.94 102.218 227.156 102.218 227.394C102.218 227.747 102.129 228.05 101.951 228.304C101.773 228.556 101.5 228.712 101.132 228.772L100.823 228.799H99.7089V230.309H98.9855ZM101.468 230.309L100.615 228.55L101.351 228.388L102.287 230.309H101.468ZM99.7089 228.124H100.742C100.782 228.124 100.827 228.122 100.877 228.118C100.927 228.114 100.973 228.106 101.015 228.094C101.135 228.064 101.229 228.011 101.297 227.935C101.367 227.859 101.416 227.773 101.444 227.677C101.474 227.581 101.489 227.486 101.489 227.394C101.489 227.302 101.474 227.208 101.444 227.112C101.416 227.014 101.367 226.927 101.297 226.851C101.229 226.775 101.135 226.722 101.015 226.692C100.973 226.68 100.927 226.673 100.877 226.671C100.827 226.667 100.782 226.665 100.742 226.665H99.7089V228.124Z" fill="black"/>
<circle cx="100.486" cy="228.088" r="3.54213" stroke="black" stroke-width="0.720433"/>
</g>
<path d="M234.617 197.027V186.341C234.617 185.146 234.332 184.22 233.763 183.561C233.204 182.891 232.428 182.556 231.434 182.556C230.798 182.556 230.245 182.707 229.776 183.008C229.307 183.299 228.939 183.712 228.671 184.248C228.414 184.772 228.286 185.381 228.286 186.073L226.376 184.8C226.376 183.561 226.667 182.467 227.247 181.518C227.839 180.568 228.626 179.832 229.609 179.307C230.603 178.771 231.702 178.503 232.908 178.503C234.974 178.503 236.532 179.117 237.581 180.345C238.642 181.562 239.172 183.159 239.172 185.135V197.027H234.617ZM212.81 197.027V178.938H216.83V184.934H217.399V197.027H212.81ZM223.73 197.027V186.341C223.73 185.146 223.445 184.22 222.876 183.561C222.318 182.891 221.542 182.556 220.548 182.556C219.599 182.556 218.834 182.885 218.253 183.544C217.684 184.192 217.399 185.035 217.399 186.073L215.49 184.733C215.49 183.55 215.786 182.489 216.377 181.551C216.969 180.613 217.762 179.871 218.756 179.323C219.761 178.776 220.883 178.503 222.122 178.503C223.54 178.503 224.701 178.804 225.606 179.407C226.521 180.01 227.197 180.814 227.632 181.819C228.068 182.824 228.286 183.929 228.286 185.135V197.027H223.73Z" fill="black"/>
<path d="M202.215 197.529C200.395 197.529 198.798 197.122 197.425 196.307C196.051 195.492 194.98 194.369 194.209 192.94C193.45 191.5 193.07 189.847 193.07 187.983C193.07 186.096 193.461 184.437 194.243 183.008C195.024 181.568 196.102 180.446 197.475 179.642C198.849 178.838 200.428 178.436 202.215 178.436C204.035 178.436 205.632 178.843 207.005 179.658C208.39 180.474 209.467 181.601 210.238 183.042C211.008 184.471 211.393 186.118 211.393 187.983C211.393 189.858 211.003 191.517 210.221 192.957C209.45 194.386 208.373 195.508 206.988 196.323C205.615 197.127 204.024 197.529 202.215 197.529ZM202.215 193.275C203.678 193.275 204.766 192.784 205.481 191.801C206.207 190.808 206.57 189.535 206.57 187.983C206.57 186.375 206.201 185.091 205.464 184.13C204.739 183.17 203.655 182.69 202.215 182.69C201.221 182.69 200.406 182.913 199.77 183.36C199.133 183.807 198.659 184.426 198.346 185.219C198.045 186.012 197.894 186.933 197.894 187.983C197.894 189.602 198.257 190.891 198.983 191.852C199.719 192.801 200.797 193.275 202.215 193.275Z" fill="black"/>
<path d="M182.708 197.529C181.045 197.529 179.587 197.111 178.337 196.273C177.086 195.436 176.109 194.297 175.406 192.856C174.714 191.416 174.367 189.791 174.367 187.983C174.367 186.14 174.719 184.504 175.423 183.075C176.137 181.635 177.137 180.501 178.421 179.675C179.705 178.849 181.212 178.436 182.943 178.436C184.662 178.436 186.108 178.855 187.281 179.692C188.453 180.529 189.341 181.668 189.944 183.109C190.547 184.549 190.848 186.174 190.848 187.983C190.848 189.791 190.541 191.416 189.927 192.856C189.324 194.297 188.42 195.436 187.214 196.273C186.008 197.111 184.506 197.529 182.708 197.529ZM183.445 193.476C184.461 193.476 185.271 193.247 185.874 192.789C186.488 192.332 186.929 191.69 187.197 190.863C187.465 190.037 187.599 189.077 187.599 187.983C187.599 186.888 187.465 185.928 187.197 185.102C186.929 184.276 186.499 183.633 185.907 183.176C185.327 182.718 184.562 182.489 183.613 182.489C182.597 182.489 181.759 182.74 181.1 183.243C180.453 183.734 179.973 184.398 179.66 185.236C179.347 186.062 179.191 186.978 179.191 187.983C179.191 188.999 179.342 189.925 179.643 190.763C179.945 191.589 180.408 192.248 181.033 192.739C181.659 193.231 182.463 193.476 183.445 193.476ZM187.599 197.027V184.633H187.03V172.909H191.619V197.027H187.599Z" fill="black"/>
<path d="M166.354 197.529C164.077 197.529 162.234 197.016 160.827 195.989C159.432 194.95 158.583 193.487 158.281 191.6L162.938 190.897C163.127 191.745 163.546 192.41 164.194 192.89C164.853 193.37 165.684 193.61 166.689 193.61C167.516 193.61 168.152 193.454 168.599 193.141C169.045 192.817 169.269 192.371 169.269 191.801C169.269 191.444 169.179 191.159 169.001 190.947C168.822 190.724 168.42 190.506 167.795 190.294C167.181 190.082 166.22 189.803 164.914 189.456C163.44 189.077 162.262 188.653 161.38 188.184C160.498 187.715 159.861 187.156 159.471 186.509C159.08 185.85 158.884 185.057 158.884 184.13C158.884 182.969 159.18 181.964 159.772 181.116C160.364 180.256 161.196 179.597 162.268 179.139C163.351 178.67 164.624 178.436 166.086 178.436C167.504 178.436 168.761 178.654 169.855 179.089C170.949 179.524 171.831 180.144 172.501 180.948C173.182 181.752 173.601 182.701 173.757 183.795L169.101 184.633C169.023 183.963 168.733 183.433 168.23 183.042C167.728 182.651 167.047 182.422 166.187 182.355C165.349 182.299 164.674 182.411 164.16 182.69C163.658 182.969 163.407 183.371 163.407 183.896C163.407 184.209 163.513 184.471 163.725 184.683C163.948 184.895 164.4 185.113 165.081 185.336C165.774 185.56 166.823 185.85 168.23 186.207C169.604 186.565 170.704 186.983 171.53 187.463C172.367 187.932 172.976 188.502 173.355 189.172C173.735 189.831 173.925 190.629 173.925 191.567C173.925 193.42 173.255 194.878 171.915 195.938C170.575 196.999 168.722 197.529 166.354 197.529Z" fill="black"/>
<path d="M152.501 176.426V173.276H157.057V176.426H152.501ZM152.501 197.027V178.938H157.057V197.027H152.501Z" fill="black"/>
<path d="M126.416 197.027L119.348 172.909H124.138L128.66 189.49L133.182 172.942L137.972 172.909L142.494 189.49L147.017 172.909H151.807L144.739 197.027H140.25L135.577 180.747L130.904 197.027H126.416Z" fill="black"/>
<path d="M351.09 197.529C349.426 197.529 347.969 197.111 346.718 196.273C345.468 195.436 344.491 194.297 343.787 192.856C343.095 191.416 342.749 189.791 342.749 187.983C342.749 186.14 343.101 184.504 343.804 183.075C344.519 181.635 345.518 180.501 346.802 179.675C348.086 178.849 349.593 178.436 351.324 178.436C353.044 178.436 354.49 178.855 355.662 179.692C356.834 180.529 357.722 181.668 358.325 183.109C358.928 184.549 359.23 186.174 359.23 187.983C359.23 189.791 358.923 191.416 358.308 192.856C357.705 194.297 356.801 195.436 355.595 196.273C354.389 197.111 352.887 197.529 351.09 197.529ZM351.827 193.476C352.843 193.476 353.652 193.247 354.255 192.789C354.869 192.332 355.31 191.69 355.578 190.863C355.846 190.037 355.98 189.077 355.98 187.983C355.98 186.888 355.846 185.928 355.578 185.102C355.31 184.276 354.88 183.633 354.289 183.176C353.708 182.718 352.943 182.489 351.994 182.489C350.978 182.489 350.141 182.74 349.482 183.243C348.834 183.734 348.354 184.398 348.041 185.236C347.729 186.062 347.572 186.978 347.572 187.983C347.572 188.999 347.723 189.925 348.025 190.763C348.326 191.589 348.79 192.248 349.415 192.739C350.04 193.231 350.844 193.476 351.827 193.476ZM355.98 197.027V184.633H355.411V172.909H360V197.027H355.98Z" fill="black"/>
<path d="M334.015 197.529C332.161 197.529 330.526 197.133 329.107 196.34C327.701 195.536 326.595 194.436 325.791 193.041C324.998 191.634 324.602 190.026 324.602 188.217C324.602 186.241 324.993 184.521 325.774 183.058C326.556 181.596 327.634 180.462 329.007 179.658C330.38 178.843 331.96 178.436 333.747 178.436C335.645 178.436 337.259 178.882 338.587 179.776C339.916 180.669 340.899 181.925 341.535 183.544C342.172 185.163 342.395 187.067 342.205 189.255H337.7V187.58C337.7 185.738 337.404 184.415 336.812 183.611C336.231 182.796 335.277 182.388 333.948 182.388C332.396 182.388 331.251 182.863 330.514 183.812C329.789 184.75 329.426 186.14 329.426 187.982C329.426 189.669 329.789 190.975 330.514 191.902C331.251 192.817 332.329 193.275 333.747 193.275C334.64 193.275 335.405 193.08 336.041 192.689C336.678 192.298 337.164 191.734 337.499 190.997L342.054 192.304C341.373 193.956 340.296 195.24 338.822 196.156C337.359 197.071 335.757 197.529 334.015 197.529ZM328.019 189.255V185.872H340.011V189.255H328.019Z" fill="black"/>
<path d="M314.363 197.027V178.938H318.382V183.36L317.947 182.79C318.181 182.165 318.494 181.596 318.885 181.082C319.276 180.568 319.756 180.144 320.325 179.809C320.761 179.541 321.235 179.334 321.749 179.189C322.263 179.033 322.793 178.938 323.34 178.905C323.887 178.86 324.434 178.871 324.981 178.938V183.192C324.479 183.036 323.893 182.986 323.223 183.042C322.564 183.086 321.967 183.237 321.431 183.494C320.895 183.739 320.442 184.069 320.074 184.482C319.706 184.884 319.426 185.364 319.237 185.922C319.047 186.469 318.952 187.089 318.952 187.781V197.027H314.363Z" fill="black"/>
<path d="M307.019 176.426V172.406H311.575V176.426H307.019ZM307.019 197.027V178.938H311.575V197.027H307.019Z" fill="black"/>
<path d="M296.891 197.529C295.093 197.529 293.591 197.111 292.385 196.273C291.179 195.436 290.269 194.297 289.655 192.856C289.052 191.416 288.751 189.791 288.751 187.982C288.751 186.174 289.052 184.549 289.655 183.109C290.258 181.668 291.146 180.529 292.318 179.692C293.491 178.854 294.937 178.436 296.656 178.436C298.387 178.436 299.894 178.849 301.178 179.675C302.462 180.501 303.456 181.635 304.16 183.075C304.874 184.504 305.232 186.14 305.232 187.982C305.232 189.791 304.88 191.416 304.176 192.856C303.484 194.297 302.513 195.436 301.262 196.273C300.012 197.111 298.554 197.529 296.891 197.529ZM287.98 205.066V178.938H292V191.332H292.57V205.066H287.98ZM296.154 193.476C297.136 193.476 297.94 193.23 298.566 192.739C299.191 192.248 299.654 191.589 299.956 190.763C300.257 189.925 300.408 188.999 300.408 187.982C300.408 186.978 300.252 186.062 299.939 185.236C299.626 184.398 299.141 183.734 298.482 183.243C297.834 182.74 297.002 182.489 295.986 182.489C295.037 182.489 294.267 182.718 293.675 183.176C293.094 183.633 292.67 184.275 292.402 185.102C292.134 185.928 292 186.888 292 187.982C292 189.077 292.134 190.037 292.402 190.863C292.67 191.69 293.105 192.332 293.708 192.789C294.323 193.247 295.138 193.476 296.154 193.476Z" fill="black"/>
<path d="M278.996 197.529C276.718 197.529 274.876 197.016 273.469 195.988C272.073 194.95 271.225 193.487 270.923 191.6L275.579 190.897C275.769 191.745 276.188 192.41 276.835 192.89C277.494 193.37 278.326 193.61 279.331 193.61C280.157 193.61 280.794 193.454 281.24 193.141C281.687 192.817 281.91 192.371 281.91 191.801C281.91 191.444 281.821 191.159 281.642 190.947C281.464 190.724 281.062 190.506 280.436 190.294C279.822 190.082 278.862 189.803 277.556 189.456C276.082 189.077 274.904 188.652 274.022 188.183C273.14 187.714 272.503 187.156 272.112 186.509C271.721 185.85 271.526 185.057 271.526 184.13C271.526 182.969 271.822 181.964 272.414 181.115C273.006 180.256 273.837 179.597 274.909 179.139C275.992 178.67 277.265 178.436 278.728 178.436C280.146 178.436 281.402 178.653 282.496 179.089C283.591 179.524 284.473 180.144 285.143 180.948C285.824 181.752 286.243 182.701 286.399 183.795L281.743 184.633C281.665 183.963 281.374 183.432 280.872 183.042C280.369 182.651 279.688 182.422 278.829 182.355C277.991 182.299 277.316 182.411 276.802 182.69C276.299 182.969 276.048 183.371 276.048 183.896C276.048 184.208 276.154 184.471 276.366 184.683C276.59 184.895 277.042 185.113 277.723 185.336C278.415 185.559 279.465 185.85 280.872 186.207C282.245 186.564 283.345 186.983 284.171 187.463C285.009 187.932 285.617 188.502 285.997 189.172C286.377 189.83 286.566 190.629 286.566 191.567C286.566 193.42 285.896 194.877 284.557 195.938C283.217 196.999 281.363 197.529 278.996 197.529Z" fill="black"/>
<path d="M265.193 197.027V188.485C265.193 188.072 265.17 187.547 265.126 186.911C265.081 186.263 264.941 185.615 264.707 184.968C264.472 184.32 264.087 183.779 263.551 183.343C263.026 182.908 262.278 182.69 261.307 182.69C260.916 182.69 260.497 182.751 260.051 182.874C259.604 182.997 259.185 183.237 258.794 183.594C258.404 183.94 258.08 184.454 257.823 185.135C257.577 185.816 257.455 186.721 257.455 187.849L254.842 186.609C254.842 185.18 255.132 183.84 255.713 182.589C256.293 181.339 257.164 180.328 258.326 179.558C259.498 178.787 260.972 178.402 262.747 178.402C264.165 178.402 265.321 178.642 266.214 179.122C267.107 179.603 267.8 180.211 268.291 180.948C268.793 181.685 269.151 182.455 269.363 183.259C269.575 184.052 269.704 184.778 269.748 185.437C269.793 186.095 269.815 186.576 269.815 186.877V197.027H265.193ZM252.832 197.027V178.938H256.885V184.934H257.455V197.027H252.832Z" fill="black"/>
<path d="M245.522 197.027V172.909H250.077V197.027H245.522Z" fill="black"/>
<path d="M229.25 226.672L229.283 202.554H233.906V217.293L240.036 208.584H245.664L239.132 217.628L246.099 226.672H240.17L233.906 217.963V226.672H229.25Z" fill="black"/>
<path d="M217.712 226.672V208.583H221.731V213.005L221.296 212.436C221.531 211.81 221.843 211.241 222.234 210.727C222.625 210.214 223.105 209.789 223.674 209.454C224.11 209.186 224.584 208.98 225.098 208.835C225.612 208.678 226.142 208.583 226.689 208.55C227.236 208.505 227.783 208.516 228.331 208.583V212.838C227.828 212.681 227.242 212.631 226.572 212.687C225.913 212.732 225.316 212.882 224.78 213.139C224.244 213.385 223.792 213.714 223.423 214.127C223.055 214.529 222.776 215.009 222.586 215.568C222.396 216.115 222.301 216.735 222.301 217.427V226.672H217.712Z" fill="black"/>
<path d="M207.083 227.175C205.263 227.175 203.667 226.767 202.293 225.952C200.92 225.137 199.848 224.015 199.078 222.585C198.318 221.145 197.939 219.493 197.939 217.628C197.939 215.741 198.329 214.083 199.111 212.653C199.893 211.213 200.97 210.091 202.344 209.287C203.717 208.483 205.297 208.081 207.083 208.081C208.903 208.081 210.5 208.489 211.874 209.304C213.258 210.119 214.336 211.247 215.106 212.687C215.877 214.116 216.262 215.763 216.262 217.628C216.262 219.504 215.871 221.162 215.089 222.602C214.319 224.031 213.241 225.154 211.857 225.969C210.483 226.773 208.892 227.175 207.083 227.175ZM207.083 222.92C208.546 222.92 209.635 222.429 210.349 221.447C211.075 220.453 211.438 219.18 211.438 217.628C211.438 216.02 211.07 214.736 210.333 213.776C209.607 212.815 208.524 212.335 207.083 212.335C206.09 212.335 205.275 212.559 204.638 213.005C204.002 213.452 203.527 214.072 203.214 214.864C202.913 215.657 202.762 216.578 202.762 217.628C202.762 219.247 203.125 220.537 203.851 221.497C204.588 222.446 205.665 222.92 207.083 222.92Z" fill="black"/>
<path d="M178.401 226.672L172.874 208.55L177.329 208.583L180.612 219.37L183.945 208.583H187.73L191.063 219.37L194.346 208.583H198.801L193.274 226.672H189.79L185.837 214.881L181.885 226.672H178.401Z" fill="black"/>
<path d="M172.751 226.672C171.5 226.907 170.272 227.007 169.066 226.974C167.872 226.951 166.8 226.745 165.851 226.354C164.913 225.952 164.198 225.31 163.707 224.428C163.26 223.602 163.026 222.764 163.003 221.916C162.981 221.056 162.97 220.084 162.97 219.001V203.559H167.525V218.733C167.525 219.437 167.531 220.073 167.542 220.643C167.564 221.201 167.682 221.648 167.894 221.983C168.296 222.619 168.938 222.965 169.82 223.021C170.702 223.077 171.679 223.032 172.751 222.887V226.672ZM159.888 212.101V208.584H172.751V212.101H159.888Z" fill="black"/>
<path d="M152.159 227.175C150.305 227.175 148.67 226.778 147.252 225.985C145.845 225.182 144.739 224.082 143.935 222.686C143.143 221.279 142.746 219.671 142.746 217.862C142.746 215.886 143.137 214.166 143.919 212.704C144.7 211.241 145.778 210.108 147.151 209.304C148.525 208.489 150.105 208.081 151.891 208.081C153.789 208.081 155.403 208.528 156.731 209.421C158.06 210.314 159.043 211.57 159.679 213.189C160.316 214.808 160.539 216.712 160.349 218.901H155.844V217.226C155.844 215.384 155.548 214.06 154.956 213.256C154.375 212.441 153.421 212.034 152.092 212.034C150.54 212.034 149.395 212.508 148.659 213.457C147.933 214.395 147.57 215.785 147.57 217.628C147.57 219.314 147.933 220.62 148.659 221.547C149.395 222.463 150.473 222.92 151.891 222.92C152.784 222.92 153.549 222.725 154.186 222.334C154.822 221.943 155.308 221.38 155.643 220.643L160.198 221.949C159.517 223.602 158.44 224.886 156.966 225.801C155.503 226.717 153.901 227.175 152.159 227.175ZM146.163 218.901V215.518H158.155V218.901H146.163Z" fill="black"/>
<path d="M121.581 226.672V202.554H126.203L136.688 218.633V202.554H141.311V226.672H136.688L126.203 210.593V226.672H121.581Z" fill="black"/>
<defs>
<radialGradient id="paint0_radial_265_319" cx="0" cy="0" r="1" gradientUnits="userSpaceOnUse" gradientTransform="translate(75.5965 177.775) rotate(90) scale(12.7747 17.7087)">
<stop offset="0.305" stop-color="#008FE1"/>
<stop offset="1" stop-color="#05E8FF"/>
</radialGradient>
<radialGradient id="paint1_radial_265_319" cx="0" cy="0" r="1" gradientUnits="userSpaceOnUse" gradientTransform="translate(92.6618 217.43) rotate(90) scale(17.1591 16.8863)">
<stop offset="0.305" stop-color="#008FE1"/>
<stop offset="1" stop-color="#05E8FF"/>
</radialGradient>
<radialGradient id="paint2_radial_265_319" cx="0" cy="0" r="1" gradientUnits="userSpaceOnUse" gradientTransform="translate(58.7752 217.332) rotate(90) scale(17.0614 17.0003)">
<stop offset="0.305" stop-color="#008FE1"/>
<stop offset="1" stop-color="#05E8FF"/>
</radialGradient>
<radialGradient id="paint3_radial_265_319" cx="0" cy="0" r="1" gradientUnits="userSpaceOnUse" gradientTransform="translate(96.1873 188.266) rotate(90) scale(17.0369 15.3556)">
<stop offset="0.305" stop-color="#008FE1"/>
<stop offset="1" stop-color="#05E8FF"/>
</radialGradient>
<radialGradient id="paint4_radial_265_319" cx="0" cy="0" r="1" gradientUnits="userSpaceOnUse" gradientTransform="translate(55.3312 188.274) rotate(90) scale(17.0369 15.3312)">
<stop offset="0.305" stop-color="#008FE1"/>
<stop offset="1" stop-color="#05E8FF"/>
</radialGradient>
<clipPath id="clip0_265_319">
<rect width="71.543" height="69.5807" fill="white" transform="translate(40 165)"/>
</clipPath>
</defs>
</svg>
